<svg width="90" height="100" viewBox="0 0 90 100" fill="none" xmlns="http://www.w3.org/2000/svg">
<g clip-path="url(#clip0_224_729)">
<path fill-rule="evenodd" clip-rule="evenodd" d="M44.0069 57.3751C42.5024 57.0395 43.3487 55.7563 40.5632 54.3782C38.5516 53.3831 37.6442 53.2405 35.3709 53.9622L36.767 55.897C37.7609 57.3332 39.1815 59.4895 41.2057 59.9021C42.0815 60.0804 41.7582 59.6236 42.3902 59.4452C43.4693 59.5517 42.5093 63.8684 42.6889 65.9428C41.8888 65.9404 41.9866 65.5794 41.4328 64.934L40.1866 63.6607C39.868 63.3934 39.6593 63.1347 39.3328 62.8688C36.369 60.4569 32.6706 60.0492 29.4367 62.2151C28.7161 62.6979 28.162 63.1582 27.5617 63.6319C27.1122 63.9862 26.1692 64.8494 26.0378 65.5476C28.3078 66.0151 30.723 66.4263 33.0378 66.8437C34.2055 67.0541 35.4517 67.2554 36.5625 66.7321C38.0163 66.0469 37.8218 64.3392 38.2135 64.1114C39.7012 63.8508 41.8327 67.1147 42.4702 68.4732C43.3602 70.3703 43.8341 72.7626 43.4641 74.9222C43.3676 75.4856 43.3314 75.3425 42.9962 75.5764C43.8317 76.5774 43.1892 77.114 43.4777 78.2913L45.8903 78.2934C46.1541 76.4914 45.4634 74.6984 46.3872 73.0179C46.7321 72.3907 48.5069 70.1447 49.4433 70.4643C50.1797 70.7153 50.2434 72.3926 52.3657 73.2646C53.7642 73.8392 54.7717 73.3589 57.1995 74.1321C57.2145 71.8682 54.5179 69.3557 52.1903 69.271C50.0662 69.1939 48.5258 70.4231 47.1514 71.5491C46.6988 71.92 46.3778 72.501 45.5601 72.4764C45.0548 71.87 45.1193 70.7278 44.9538 69.8699C44.8109 69.1287 44.4317 67.8182 44.5563 67.1579C45.3847 66.9158 46.2973 68.415 48.7815 66.2643C49.3775 65.7481 51.4896 63.7606 51.675 63.277C51.1009 62.7414 47.0166 61.9326 45.4765 63.9736C44.738 64.9525 44.8673 65.4184 44.2154 65.3823C43.4255 64.4831 43.6728 61.4825 43.8894 60.2051C44.0184 59.4439 44.271 58.461 44.6069 57.9043C44.9127 57.3978 45.5974 56.3319 46.1795 56.5818C46.5475 56.9428 45.5924 57.9518 45.6325 59.0215C47.0155 59.5013 47.7183 59.4655 49.3812 58.5596C50.4351 57.9852 52.5957 56.356 53.6921 55.5176C55.597 54.0613 56.5526 53.7916 59.0454 53.366C58.8839 53.1118 59.0339 53.3038 58.8252 53.1001C58.1315 52.4243 56.0184 51.2719 55.1284 50.8933C51.4982 49.3484 48.8116 50.9125 46.5732 53.6472C46.3531 53.9161 46.1601 54.2359 45.9215 54.5497C45.2289 55.461 44.4839 56.7872 44.0069 57.3757V57.3751Z" fill="#FEFEFE"/>
<path fill-rule="evenodd" clip-rule="evenodd" d="M35.1155 72.8609C35.7218 72.0855 38.8862 71.512 40.0547 71.9077C41.3245 72.3379 42.3551 73.82 42.7788 75.2856C42.4946 75.155 42.3183 75.0629 41.9098 75.0715L41.7435 75.4356C41.6389 75.6757 41.732 75.5021 41.6292 75.6898C40.4318 75.9627 38.9428 75.175 38.0187 74.6728C37.2561 74.2582 35.4456 73.4425 35.1152 72.8606L35.1155 72.8609ZM45.6558 57.2133L45.5599 57.4088L45.6558 57.2133ZM44.0066 57.3754L45.6558 57.2133L44.0066 57.3754ZM42.3574 57.5375C42.8342 56.949 43.5794 55.6228 44.272 54.7115C44.5107 54.3977 44.7037 54.0779 44.9237 53.809C47.1621 51.0743 49.8488 49.5102 53.4789 51.0551C54.369 51.434 56.4821 52.5864 57.1757 53.2619C57.3847 53.4656 57.2344 53.2736 57.396 53.5278C54.9031 53.9534 53.9475 54.2231 52.0426 55.6794C50.9462 56.5178 48.7859 58.147 47.7317 58.7214C46.0686 59.6273 45.3661 59.6631 43.983 59.1833C43.9426 58.1137 44.898 57.1046 44.5301 56.7437C43.9476 56.4937 43.2632 57.5596 42.9574 58.0661C42.6215 58.6228 42.369 59.6057 42.2399 60.3669C42.0233 61.6443 41.776 64.6449 42.5659 65.5442C43.2178 65.5799 43.0885 65.1143 43.827 64.1354C45.3671 62.0942 49.4515 62.9032 50.0255 63.4388C49.8401 63.9224 47.7281 65.91 47.132 66.4261C44.6478 68.5768 43.7355 67.0776 42.9068 67.3197C42.7822 67.9801 43.1612 69.2905 43.3044 70.0317C43.4701 70.8896 43.4056 72.0319 43.9107 72.6382C44.7281 72.6628 45.0493 72.0818 45.5019 71.7109C46.8763 70.585 48.4167 69.3557 50.5408 69.4328C52.8684 69.5175 55.565 72.0297 55.5501 74.2939C53.1223 73.521 52.115 74.0013 50.7162 73.4264C48.594 72.5544 48.5302 70.8773 47.7939 70.6261C46.8574 70.3067 45.0826 72.5528 44.7378 73.1797C43.8139 74.8603 44.5046 76.6532 44.2408 78.4552L41.8282 78.4531C41.5395 77.2758 42.1822 76.7392 41.3468 75.7382C41.6816 75.5043 41.7181 75.6474 41.8146 75.084C42.1846 72.9245 41.711 70.5321 40.8207 68.635C40.1832 67.2765 38.052 64.0126 36.5641 64.2732C36.1723 64.501 36.3669 66.2087 34.913 66.8939C33.8022 67.4175 32.5563 67.2159 31.3883 67.0055C29.0735 66.5882 26.6583 66.177 24.3884 65.7094C24.5198 65.0112 25.4628 64.1477 25.9122 63.7937C26.5128 63.32 27.0666 62.8597 27.7872 62.3769C31.0211 60.211 34.7195 60.6187 37.6833 63.0306C38.0098 63.2965 38.2185 63.5552 38.5371 63.8225L39.7833 65.0959C40.3371 65.7412 40.2393 66.1022 41.0394 66.1046C40.86 64.0305 41.8198 59.7138 40.7407 59.607C40.1085 59.7854 40.4318 60.2422 39.5562 60.0639C37.532 59.6516 36.1114 57.495 35.1176 56.0588L33.7214 54.1241C35.995 53.4023 36.9021 53.5449 38.9137 54.5401C41.6989 55.9181 40.853 57.201 42.3574 57.5369V57.5375ZM43.9107 57.5708C43.7525 58.2621 43.0786 59.2201 43.9872 59.6444C44.7519 60.0014 45.5462 60.0158 46.4208 59.7357C48.0296 59.2201 48.8871 58.5112 50.1364 57.6512C50.422 57.4544 50.6727 57.2347 50.9439 57.0064C51.2481 56.7503 51.483 56.6163 51.7862 56.3971C52.0634 56.1968 52.3256 56.0048 52.6227 55.7819C52.9051 55.5704 53.1981 55.395 53.4954 55.2038C54.4555 54.5865 55.5697 54.3224 56.7254 54.0915L57.9338 53.7569C57.9338 53.1108 57.7537 53.1295 57.2609 52.7797C54.7938 51.0295 51.8355 49.335 48.723 50.3443C44.9072 51.5814 43.0975 56.3274 42.0855 57.0822C40.9901 55.4169 40.4326 54.7254 38.5306 53.856C36.3477 52.8582 33.2489 53.3332 33.2489 54.1481C33.3412 54.5005 33.3729 54.3996 33.6026 54.6682C33.7309 54.8183 33.8567 54.9966 33.9768 55.1672C35.2114 56.9215 36.2746 58.7801 38.1412 59.9245C39.4078 60.7012 39.8651 60.7108 40.741 60.1135C41.0593 61.5046 40.5488 63.7437 40.5488 65.2966C39.6443 64.6799 35.8762 58.6477 29.2975 61.0777C27.6427 61.6891 25.6529 63.2637 24.4841 64.5872C23.1406 66.1083 24.5659 66.1804 25.7447 66.3847L31.5755 67.4893C33.4736 67.8564 35.6119 67.7336 36.4854 65.7556C36.6627 65.3543 36.6556 64.925 36.803 64.612C37.2711 64.8644 37.5142 64.9674 37.9277 65.325C38.9706 66.2261 39.7067 67.3953 40.3248 68.6542C40.7963 69.6144 41.0719 70.3051 41.3116 71.4634C41.4663 72.2105 41.7855 74.1297 41.3174 74.8805C41.1587 74.1871 40.6206 73.2513 40.1908 72.8003C38.77 71.3088 37.2894 71.3184 35.3811 71.7705C34.4329 71.995 33.8447 72.1921 33.0569 72.7293V73.3162C34.7562 74.4747 36.5365 75.6837 38.5683 76.2129C39.6475 76.4938 40.1205 76.4876 40.549 75.6634C41.6989 76.2829 41.3176 77.4547 41.3176 78.695C38.9656 78.695 36.3815 78.2523 34.1974 77.6318C33.1531 77.3351 32.0822 77.0233 31.136 76.6412C29.2156 75.8655 27.3797 75.0205 25.6057 73.9594C23.518 72.7106 21.4825 71.182 19.7788 69.4278L18.7225 68.3517C17.92 67.4653 17.1058 66.6189 16.3859 65.6451C13.7132 62.0296 11.8012 58.1857 10.5467 53.7914C8.491 46.5894 9.20769 37.3246 12.407 30.7752C13.5047 28.5278 14.6531 26.242 16.2257 24.2969C17.7818 22.372 19.3361 20.5332 21.2559 18.9544C27.2877 13.9945 34.3505 11.0171 42.2777 11.019C45.9288 11.02 49.7171 11.4665 52.8585 12.6664C56.3919 14.0158 57.4888 14.2847 61.1428 16.7497C62.3719 17.579 63.4529 18.5536 64.6175 19.4707L66.22 20.9686C66.4269 21.1988 66.4584 21.3128 66.697 21.5585C71.6035 26.6081 75.3228 34.5763 75.7067 41.6266C75.8148 43.6078 75.9666 44.5017 75.8051 46.5245C75.777 46.8754 75.8239 47.231 75.7862 47.5808C75.1746 53.2376 73.5742 58.5206 70.5737 63.2025C69.6535 64.6387 68.6722 66.1676 67.4688 67.3758C66.7925 68.0548 66.2058 68.8134 65.4996 69.4785C65.2652 69.6993 65.1569 69.7305 64.9203 69.9644C64.5611 70.3198 64.2448 70.6069 63.8609 70.9395C61.5726 72.9218 58.9531 74.5145 56.2067 75.7622L54.7914 76.375C53.8686 76.7528 52.71 77.1877 51.7112 77.4441C50.1189 77.8523 48.3076 78.2654 46.5826 78.4814C46.1921 78.5302 44.8867 78.5933 44.679 78.6947C44.679 77.074 44.4553 74.8677 44.9664 73.7063C45.2381 73.0889 45.5911 72.6262 46.0468 72.1659C46.5128 71.6954 46.9796 71.2816 47.5605 70.9689C47.9562 71.2389 47.9643 71.3553 48.2145 71.7699C48.8116 72.7592 49.5981 73.4206 50.673 73.8635C51.9168 74.3759 53.3116 74.1441 54.6296 74.4314C55.1323 74.5409 55.2021 74.7689 55.821 74.7831C56.6995 73.0921 54.0186 69.7241 51.3304 69.0868C48.9199 68.5151 46.4195 70.1767 44.8476 71.7275C44.5631 72.0084 44.4433 72.1371 44.0066 72.2404C44.0066 70.7083 43.3343 69.098 43.3343 67.7419C44.8518 68.5595 46.4892 67.5633 47.635 66.5465C47.9622 66.256 48.1314 66.1358 48.4489 65.8104L49.9875 64.2473C50.3683 63.8695 50.4419 63.8727 50.4419 63.1451C50.0911 62.9561 49.988 62.8458 49.5176 62.7171C47.3017 62.1102 44.8078 62.1786 43.3193 64.1082C43.0584 64.4462 43.0621 64.7968 42.6616 64.9055C42.6535 64.5383 42.5641 64.3392 42.5061 63.988C42.4468 63.6263 42.4689 63.2322 42.4694 62.8519C42.4702 61.9882 42.5103 61.53 42.6189 60.7546C42.7893 59.5381 43.1465 58.0918 43.9104 57.5708H43.9107ZM8.75586 43.9771C8.75586 49.5137 9.32701 53.0205 11.2531 57.9623C12.9223 62.245 15.6842 66.2386 18.7214 69.3311C22.2493 72.9234 26.6641 75.786 31.387 77.4617C37.6033 79.6674 44.3371 79.9715 50.7317 78.4031C51.847 78.1297 52.9308 77.7709 53.985 77.4126C55.6799 76.8364 58.2747 75.5641 59.7409 74.6667L64.683 71.0925C65.0761 70.7024 65.3913 70.4683 65.7865 70.0646L68.3318 67.3753C69.5428 66.0808 71.443 63.1878 72.246 61.6784C72.4998 61.201 72.7209 60.8085 72.9823 60.2767C74.9389 56.298 75.7345 53.0438 76.3366 48.631L76.5716 44.5607C76.5566 44.094 76.4945 44.1124 76.4719 43.6841C76.4536 43.336 76.4858 42.9552 76.4756 42.6046C76.4588 42.0322 76.3426 41.2213 76.2805 40.6518C76.1402 39.368 75.9139 38.1974 75.6461 36.9946C74.6688 32.6053 72.3042 27.322 69.5268 23.8614L68.5828 22.6711C68.101 22.0636 66.1204 19.8942 65.4941 19.361C65.239 19.1437 65.1697 19.1175 64.9224 18.867C64.6856 18.6273 64.586 18.587 64.3484 18.3758C62.7315 16.9409 61.1688 15.966 59.3567 14.8521C59.1018 14.6954 58.9419 14.6259 58.672 14.4732C50.6662 9.94612 40.6267 9.14778 31.9164 12.1073C27.8234 13.4981 23.8099 15.7602 20.5933 18.6708C19.1667 19.9618 18.1644 20.8223 16.9345 22.3779L15.5085 24.1532C15.3312 24.3756 15.2386 24.5495 15.0684 24.781C11.2817 29.9315 8.75612 37.4701 8.75612 43.9768L8.75586 43.9771Z" fill="white"/>
<path fill-rule="evenodd" clip-rule="evenodd" d="M34.9031 23.4732C34.8533 24.2881 35.3148 24.5273 35.0258 25.3692C34.6862 26.3584 36.7826 28.5225 37.3954 28.9567C38.1208 28.8112 38.1084 28.2868 39.7618 28.5199C43.6639 29.0699 41.4394 29.6143 42.064 30.5478C42.4333 31.0997 43.242 31.4892 43.1122 33.1601C42.9981 34.6257 42.0564 33.1017 43.612 37.1922C43.7728 37.6146 44.0182 38.1064 44.1305 38.5139C44.2692 39.0185 44.2605 39.5648 44.3332 40.0836C44.533 40.1114 45.8229 39.9469 46.1284 39.8962C46.6506 39.8096 46.9894 39.324 47.2652 38.9993C48.0499 38.076 48.0556 38.8468 48.2413 37.9449C48.4317 37.0192 48.5258 37.3067 49.0207 36.7733C49.0306 36.1127 48.7068 35.686 49.14 35.2353C49.4263 34.9376 49.9506 34.7256 50.2154 34.4695C50.7847 33.9198 49.976 32.3914 50.1737 31.3087C50.4354 29.876 53.0384 29.5315 53.0688 26.8887C52.4804 26.9194 52.1305 27.1763 51.4191 27.1872C51.0944 26.5611 51.5054 26.9581 50.9452 26.4989C50.5752 26.1953 49.6629 24.8704 49.537 24.5038L48.8969 22.9111C48.695 22.2471 48.7946 21.7635 48.4414 21.1251C47.8039 20.9996 47.243 21.1721 46.6241 21.0162C45.9874 20.856 45.8675 20.5714 45.1285 20.6178C44.9712 20.954 44.9667 21.0843 44.6751 21.2827C43.8916 21.2976 44.1742 20.8466 43.7006 20.6632C43.2105 20.4734 43.6812 20.8354 42.4755 20.353C42.4521 19.9882 42.5631 19.1618 42.3194 19.0649C42.3034 19.0585 42.272 19.039 42.251 19.0321C41.5469 18.7955 40.3002 18.9496 39.7445 19.3122C38.2359 20.2966 38.7234 19.1239 37.6978 20.1615C37.3534 20.51 37.3285 20.5297 37.0592 21.0736C36.8809 21.4333 36.7637 21.7617 36.3816 21.9486C35.7003 22.2815 36.0813 22.3216 35.7782 22.9029C35.5663 23.3092 35.3051 23.1864 34.9031 23.4729V23.4732Z" fill="#FEFEFE"/>
<path fill-rule="evenodd" clip-rule="evenodd" d="M67.1913 36.7503C66.6338 36.8096 66.452 37.111 65.8177 36.8846C65.3268 36.7094 65.1091 36.3431 64.4669 36.6579C63.1972 37.2808 63.8462 38.2154 62.7487 38.3222C61.7223 38.422 61.8506 38.1507 60.312 39.2762C59.573 39.8169 59.0202 40.2555 58.351 40.8008C57.7104 41.3225 57.0786 41.8274 56.5122 42.3505C55.8034 43.0049 55.448 43.4126 55.6757 44.8585C55.9145 46.3748 56.6908 47.5587 57.022 48.6713C57.1728 49.1778 57.1746 49.6672 57.3298 50.1075C58.737 50.3729 60.1363 49.1516 61.266 48.6603C66.5478 46.3646 65.1482 47.7082 66.5061 49.2867C67.0101 49.8726 67.4383 50.186 67.9885 50.613C70.0358 52.2019 70.2978 51.587 72.7937 50.3185C73.3943 50.0133 73.1483 50.1537 73.4346 49.605C73.9827 48.5551 74.8657 48.855 75.0291 45.5754C75.0865 44.4222 75.1198 45.2429 74.2363 43.5675C73.9258 42.979 73.6258 42.2279 73.2867 41.7924C72.8992 41.2945 72.1376 41.0496 71.9582 40.3175C71.8082 39.7047 72.1069 40.18 71.6868 39.2169C71.6205 39.0647 71.5612 38.8714 71.5075 38.7147C71.3103 38.1385 71.4364 38.4087 71.1904 38.2599C70.8304 38.0426 71.0714 38.4885 70.8262 37.943L70.3499 36.2964C69.6374 36.8822 70.1929 37.4888 70.0864 38.3419C69.8556 40.1856 67.4152 39.1576 66.827 38.594C66.6007 38.3772 66.4982 38.0584 66.6306 37.598C66.82 36.9393 67.0193 37.4739 67.191 36.7506L67.1913 36.7503Z" fill="#FEFEFE"/>
<path fill-rule="evenodd" clip-rule="evenodd" d="M21.2863 46.4215C21.5782 47.3489 23.8303 51.6669 24.8129 52.1208L25.0049 51.6738C25.9471 52.0081 27.2027 53.5047 27.8808 54.2841C29.164 55.7585 29.6968 55.3203 31.5039 56.092C31.1129 55.8685 31.0426 55.5598 30.5289 55.3863L30.6881 54.4723C29.7655 54.3404 28.6959 55.0709 28.5212 52.7149C28.6217 52.6185 28.5931 52.631 28.753 52.5224C29.0441 52.3245 29.4737 52.2017 29.8308 52.1464C30.4361 52.053 31.1077 52.1 31.7286 52.0754L31.8338 52.3013C31.8752 52.4035 31.9012 52.5013 31.9424 52.5985C32.0646 52.8879 31.9943 52.7878 32.2088 52.9902C32.6208 52.5488 32.54 51.3008 33.5418 49.8683C33.7041 49.6363 34.3712 48.9664 34.8474 48.964C35.4372 48.961 34.7082 49.3543 35.4904 49.2211C35.7362 49.1792 36.1413 49.0275 36.3029 48.9002C36.1424 48.5533 35.0984 48.2148 34.6586 48.1662C35.0942 47.8156 34.983 47.5739 35.7744 47.4824C36.4028 47.4097 36.9013 47.2447 37.5587 47.2669L37.2451 48.0909L38.2812 48.156L38.0153 47.0821C37.8946 46.703 36.1906 45.667 35.8586 45.4878C35.534 45.643 35.3656 46.0269 34.9064 45.9823C34.5267 45.9455 34.5204 45.695 33.718 45.6179C32.3512 45.4868 33.0086 46.6581 32.2888 47.2057C31.6597 47.3457 29.5552 46.0178 29.2227 45.6726C28.8147 44.7165 31.2346 44.2476 31.8265 44.2398L35.4042 44.8345L35.2004 44.1197C35.7314 44.0746 35.9229 44.2532 36.4316 44.1034C36.0634 43.6858 35.5725 43.9234 35.1398 43.4693C34.404 42.6974 33.2176 42.5115 32.1044 42.5428C31.3544 42.5639 31.7462 42.5865 31.4079 42.8245C31.404 42.8271 31.3366 43.0033 31.1192 42.892C30.8082 42.7326 31.1037 42.8357 30.8638 42.4838C30.0212 42.6044 29.0242 43.5681 27.477 42.4728C26.8967 42.0619 26.9911 41.8811 26.1031 41.7327C25.3856 41.6128 24.7269 41.5898 24.037 41.7495C22.709 42.0568 22.1008 42.7238 21.3031 43.3702C19.8212 44.5709 16.0377 42.4904 13.8152 43.4727C12.4969 44.0553 12.6619 45.5081 13.5682 46.2667C14.3339 46.908 18.3291 46.9083 19.4336 46.8677C20.6578 46.8229 20.4349 46.7914 21.2856 46.4208L21.2863 46.4215Z" fill="#FEFEFE"/>
<path fill-rule="evenodd" clip-rule="evenodd" d="M20.7554 82.2219C20.2332 82.1164 19.783 81.9583 19.2637 81.8384C18.6344 81.6932 18.2759 81.7789 18.0121 81.2526C17.3987 80.0276 16.3128 77.0361 16.0112 75.6551C15.7563 74.4875 15.336 72.9597 16.5997 72.952C16.9002 73.4008 17.0124 73.4027 17.2605 73.9981C17.4244 74.3917 17.571 74.8199 17.7047 75.2092C18.856 78.562 19.784 79.6738 20.7548 82.2216L20.7554 82.2219ZM15.5985 81.6686C15.3415 80.9213 14.9287 80.1339 14.6489 79.296C14.2036 77.9621 13.4518 75.6346 13.2252 74.2947C13.0304 73.1407 12.9952 72.1176 14.1509 72.0821C14.7061 72.7966 15.3454 75.7352 15.7115 76.8462C16.2244 78.4029 16.9671 79.9213 17.4181 81.4315L15.5985 81.6686ZM21.2903 88.343C20.2036 88.0455 17.4404 86.5255 16.6812 85.9322C15.2995 84.8521 14.341 84.0549 13.4363 82.2948C12.5811 80.6308 9.57302 73.6745 11.0345 71.5457C12.1228 69.9604 12.6682 74.5294 12.9997 75.8957C13.4305 77.6708 14.1318 79.3991 14.7095 81.0967C15.0131 81.9888 15.0312 83.0795 15.454 83.8578C16.1111 85.0681 17.9124 86.3904 19.1151 87.0734C19.5522 87.3217 20.9893 87.986 21.2906 88.343H21.2903ZM10.1169 73.2518C7.60519 72.6561 7.98648 76.3456 8.22485 78.0147C8.47844 79.7919 8.78027 81.9813 9.37529 83.4936C11.0292 87.6979 14.4617 91.9321 18.1655 94.2988C19.4098 95.0939 21.3687 95.5994 23.0599 95.9654C23.8859 96.1441 24.8898 96.3742 25.6891 96.6137C28.3138 97.3998 28.8905 97.9432 30.9999 99.5193C31.3998 99.8181 31.5509 99.9508 32.2091 99.9508C31.2766 98.533 28.7156 97.0631 27.0512 96.4007C24.7015 95.4653 22.2449 95.3791 20.0916 94.4892C16.7646 93.1144 14.2419 90.5543 12.288 87.5695C11.5262 86.4058 11.2563 86.012 10.6309 84.7579C9.90265 83.2971 9.89793 83.3887 9.44347 81.4684C9.30658 80.8892 7.58919 73.9225 9.73298 73.741C9.90658 74.1094 10.1051 74.7249 10.2499 75.1708C10.4245 75.7085 10.5496 76.1213 10.7048 76.6633C11.1756 78.3084 11.9594 80.9381 12.8106 82.4408C13.9734 84.4933 14.7687 85.2764 16.591 86.5134C18.6278 87.896 19.5766 88.3077 21.7671 89.2625C22.5968 89.6243 23.5589 90.3666 24.621 90.3666C24.621 89.1229 23.4304 88.6847 22.5719 88.2477C22.0854 87.9999 21.7136 87.8106 21.2271 87.563C19.7562 86.8144 18.7125 86.1893 17.3481 85.1557C16.2205 84.301 14.4045 82.0539 17.0329 82.0539C19.681 82.0539 22.9089 83.7636 24.6249 84.7883C25.6867 85.4222 27.1246 85.6692 28.4051 86.1226C30.9268 87.0149 34.3694 89.5675 35.9151 91.5812C36.3247 92.115 36.6658 92.5168 37.0789 93.0367L38.1344 94.6027C38.4913 95.216 38.7346 95.6381 39.0616 96.2992C39.653 97.494 40.0655 98.8034 40.6618 99.951H41.2382C40.8713 98.3485 38.9685 94.7778 38.0305 93.3394C37.7895 92.9699 37.6026 92.7307 37.3424 92.3774L35.0688 89.8027C34.763 89.4946 34.527 89.3501 34.204 89.0209C33.1616 87.9579 30.6674 86.3901 29.2047 85.7981C26.9788 84.8978 26.7847 85.3287 24.5303 84.0052C23.8296 83.594 23.1176 83.2848 22.3812 82.8683C21.449 82.3407 21.45 82.2157 20.8445 81.1079C20.2938 80.101 18.7432 76.5814 18.3651 75.4175C18.2397 75.0317 18.1193 74.5916 17.9549 74.1727C16.6629 70.8827 15.3661 73.0374 15.2082 73.1552C14.5849 70.4306 13.2968 71.7638 12.711 72.0794C12.5874 70.5673 11.0164 70.0392 10.4022 71.4893C10.2186 71.9229 10.1174 72.6118 10.1174 73.2529L10.1169 73.2518Z" fill="white"/>
<path fill-rule="evenodd" clip-rule="evenodd" d="M67.7505 82.2234L69.9829 77.3866C70.6065 75.9477 71.6436 71.8973 72.5536 73.1471C73.4667 74.4015 70.8102 80.808 70.4027 81.33C70.0094 81.8339 68.5117 82.0763 67.7505 82.2232V82.2234ZM66.8845 88.5119C67.2165 88.0978 69.9029 86.8557 71.0439 85.9943C73.7397 83.959 73.1127 83.3411 73.5359 81.6921C73.7935 80.6895 74.8366 78.3719 75.3092 76.6478C75.6871 75.2695 76.0723 72.2267 76.7767 71.2906C79.7806 71.4206 75.766 81.0574 75.1862 82.1967C74.3111 83.9157 73.135 84.9263 71.7037 85.9826C71.0263 86.4824 67.8763 88.3958 66.8848 88.5122L66.8845 88.5119ZM72.8387 81.6683L71.1315 81.4229C71.2899 80.7987 71.7184 79.8626 71.9672 79.2116C72.6991 77.2961 73.8483 72.8286 74.4713 72.097C75.5557 72.2377 75.4831 73.2213 75.2722 74.3529C74.9578 76.0388 73.5934 80.5693 72.8387 81.6681V81.6683ZM75.8161 72.1765C75.804 72.1683 74.7719 70.9523 73.9317 71.725C73.6429 71.9907 73.4056 72.7746 73.3188 73.1546H73.1266C72.9344 72.3143 71.4506 71.5592 70.5913 74.0942C70.4324 74.5628 70.3566 74.8776 70.2005 75.3587L69.2523 77.7185C68.6297 79.0738 67.4143 82.2127 66.2137 82.8397C65.8338 83.0383 65.5104 83.1577 65.0887 83.3566C64.8758 83.457 64.7764 83.5267 64.5963 83.6378C63.6902 84.1969 62.8563 84.7149 61.8134 85.0096C57.412 86.2539 54.9386 87.869 51.9278 91.4722C51.1731 92.3755 49.8519 94.3265 49.3057 95.355C48.6805 96.5317 47.6004 98.5895 47.2886 99.9515H47.865C48.0318 99.6306 48.1298 99.3807 48.2764 99.0013C48.428 98.6096 48.5371 98.4243 48.6889 98.0521L50.0088 95.2883C51.3194 92.886 52.2813 91.8858 54.1804 89.9516C56.0733 88.0239 58.4198 86.5879 61.0241 85.8686C61.4187 85.7596 61.6445 85.6686 62.025 85.5188C62.3963 85.3725 62.6549 85.3023 63.0144 85.1573C64.7179 84.4703 65.4564 83.5307 68.5778 82.6068C72.8082 81.3551 74.3609 82.4774 71.1394 85.1172C67.8171 87.8399 63.9053 88.3945 63.9053 90.3674C64.9256 90.3444 65.9439 89.6641 66.6892 89.2903C69.2436 88.0092 71.4071 87.4324 73.9951 84.7976C75.3703 83.3977 76.1185 81.7989 76.8582 79.7913C77.3093 78.5676 78.0713 75.5173 78.5067 74.5259C78.6352 74.2335 78.7091 74.1083 78.793 73.7417C80.4367 73.8811 79.8708 77.1637 79.617 78.5903C79.3099 80.3143 79.0088 82.421 78.3771 83.7827C77.6213 85.4117 77.0452 86.3284 76.0081 87.8252C75.5575 88.4754 75.1419 89.0342 74.6405 89.6601C72.7078 92.073 70.1452 94.1129 67.1515 94.9444C66.2819 95.186 65.4538 95.2976 64.5394 95.512C63.0297 95.8661 61.1497 96.3472 59.8136 97.1549C58.7895 97.7738 56.861 98.9778 56.2206 99.9513C57.0834 100.156 57.2337 99.6973 58.0744 99.0029C58.5664 98.5967 59.3342 98.1215 59.8747 97.804C63.3918 95.739 68.1506 96.2476 71.7677 93.2876C72.0881 93.0254 72.3123 92.8919 72.6213 92.5918C72.9108 92.3106 73.0975 92.2126 73.3901 91.9077C74.2967 90.9633 74.6691 90.7444 75.5688 89.5298C77.0554 87.5224 79.2359 83.9865 79.698 81.6072C79.8692 80.7255 80.0014 79.8663 80.1207 79.0057C80.2928 77.7615 80.8109 74.8824 79.9647 73.7214C79.6841 73.3364 79.0102 72.9583 78.4083 73.2523C78.0829 69.2699 75.9559 70.4522 75.8151 72.1765H75.8161Z" fill="white"/>
<path fill-rule="evenodd" clip-rule="evenodd" d="M27.9734 35.9663C28.3324 35.9204 28.5099 36.0053 28.6211 35.6568C28.861 34.9041 28.2954 35.6761 28.6877 34.9549C29.0239 34.3373 29.3388 34.2252 29.5389 33.9242C28.3901 33.9461 28.6004 35.083 27.7827 33.1756C27.0057 33.0989 24.7557 32.8805 24.0272 33.2375C23.3921 33.5488 24.0062 33.7325 23.1912 33.5317C22.7124 34.6948 22.3507 33.4297 21.2525 34.1258L20.0763 34.9802C19.9924 35.0363 19.8967 35.1009 19.8437 35.1445C19.651 35.3039 19.8319 35.1215 19.6812 35.3079C20.2408 35.4008 20.0839 35.2296 20.4464 35.2662C20.5872 35.2804 21.0214 35.3968 21.2218 35.4256C22.0547 35.5466 22.2123 35.5623 22.3872 36.3118C22.6219 37.3173 23.2762 38.3039 24.2367 38.4783C24.5019 38.4209 24.7235 37.8316 24.752 37.7819C25.2972 36.8237 27.6852 38.1226 27.9736 35.9663H27.9734Z" fill="#FEFEFE"/>
<path fill-rule="evenodd" clip-rule="evenodd" d="M66.8845 88.5116C67.8761 88.3952 71.0261 86.4819 71.7034 85.982C73.1347 84.926 74.3111 83.9151 75.1859 82.1961C75.7657 81.0571 79.7806 71.4201 76.7764 71.29C76.072 72.2262 75.6868 75.269 75.3089 76.6472C74.8364 78.3716 73.7932 80.6892 73.5357 81.6915C73.1124 83.3403 73.7394 83.9584 71.0436 85.9938C69.9029 86.8551 67.2163 88.0972 66.8843 88.5114L66.8845 88.5116Z" fill="#FEFEFE"/>
<path fill-rule="evenodd" clip-rule="evenodd" d="M21.2903 88.3431C20.989 87.9861 19.5519 87.3218 19.1148 87.0734C17.9124 86.3904 16.1108 85.0682 15.4537 83.8579C15.0309 83.0796 15.0131 81.9891 14.7092 81.0968C14.1312 79.3994 13.43 77.6708 12.9994 75.8958C12.6679 74.5295 12.1222 69.9605 11.0342 71.5457C9.57272 73.6746 12.5808 80.6306 13.436 82.2948C14.3407 84.0549 15.2992 84.8522 16.6809 85.9323C17.4404 86.5256 20.2036 88.0456 21.29 88.3431H21.2903Z" fill="#FEFEFE"/>
<path fill-rule="evenodd" clip-rule="evenodd" d="M21.2864 46.4213C20.4354 46.7922 20.6583 46.8237 19.4345 46.8683C18.3297 46.9089 14.3345 46.9086 13.569 46.2673C12.6627 45.5087 12.4978 44.0559 13.816 43.4733C16.0385 42.4907 19.8221 44.5715 21.304 43.3708C22.1017 42.7244 22.7098 42.0574 24.0378 41.7501C24.7277 41.5904 25.3862 41.6131 26.104 41.7332C26.9919 41.8817 26.8975 42.0625 27.4778 42.4734C29.025 43.5686 30.0221 42.605 30.8646 42.4843C31.1046 42.8362 30.809 42.7332 31.12 42.8926C31.3372 43.0039 31.4046 42.8277 31.4088 42.825C31.7471 42.5869 31.3555 42.5644 32.1053 42.5433C33.2185 42.5118 34.4048 42.6979 35.1407 43.4698C35.5734 43.924 36.0643 43.6864 36.4325 44.104C35.9237 44.2538 35.7323 44.0751 35.2013 44.1203L35.405 44.835L31.8273 44.2404C31.2354 44.2482 28.8155 44.717 29.2235 45.6732C29.5561 46.0184 31.6605 47.3462 32.2896 47.2063C33.0097 46.6584 32.352 45.4871 33.7188 45.6184C34.5215 45.6956 34.5278 45.9458 34.9073 45.9829C35.3665 46.0275 35.5348 45.6435 35.8595 45.4884C36.1915 45.6678 37.8955 46.7038 38.0161 47.0827L38.282 48.1566L37.2459 48.0914L37.5596 47.2675C36.9021 47.2453 36.4039 47.4103 35.7753 47.4829C34.9839 47.5745 35.0948 47.8162 34.6595 48.1667C35.0995 48.2153 36.1435 48.5539 36.3037 48.9007C36.1422 49.0281 35.737 49.1798 35.4913 49.2217C34.709 49.3549 35.4378 48.9616 34.8483 48.9645C34.3718 48.9669 33.7049 49.6369 33.5426 49.8689C32.5408 51.3011 32.6216 52.5491 32.2096 52.9907C31.9951 52.7883 32.0654 52.8885 31.9432 52.599C31.9023 52.5018 31.8761 52.4041 31.8346 52.3018L31.7295 52.076C31.1085 52.1005 30.4369 52.0533 29.8317 52.147C29.4745 52.2023 29.045 52.3248 28.7539 52.5229C28.5939 52.6316 28.6225 52.619 28.5221 52.7154C28.6967 55.0715 29.7664 54.341 30.6889 54.4729L30.5297 55.3868C31.0437 55.5604 31.1138 55.869 31.5047 56.0925C29.6977 55.3209 29.1648 55.759 27.8817 54.2846C27.2035 53.5055 25.9482 52.0089 25.0057 51.6744L24.8138 52.1214C23.8311 51.6674 21.5791 47.3494 21.2872 46.4221L21.2864 46.4213ZM15.1117 42.9348C14.318 42.9348 13.2769 43.2407 12.8439 43.9507C12.3572 44.7493 12.6614 45.9145 13.3778 46.4606C14.3898 47.2317 18.7574 47.1863 20.2125 47.0525C21.1797 46.9636 20.7538 46.8894 21.2589 46.8467C21.4167 47.5363 23.9408 52.4209 24.9089 52.4209C25.3167 52.4209 24.8628 52.3216 25.3891 52.1275L26.1834 52.7857C27.9727 54.5434 27.8269 55.3217 30.4172 56.0052C30.8675 56.124 31.1012 56.1985 31.4749 56.3953C31.7103 56.5195 31.7562 56.5617 31.9647 56.6901C33.0619 57.3664 31.9595 56.1465 31.7924 55.9742C31.6199 55.7967 30.8641 55.3425 30.8641 55.1591C30.8641 54.0836 31.2826 54.2163 29.6903 54.2179C28.9516 54.2187 28.912 53.5154 28.751 52.8118C29.6749 52.3139 30.256 52.3229 31.6325 52.3229C31.6723 52.8097 31.891 53.1886 32.3048 53.301C32.5107 53.1475 32.4999 53.069 32.5978 52.8169L33.2311 50.919C33.77 49.7851 34.0382 49.6136 34.8981 49.1934C34.9353 49.6475 34.795 49.3645 35.0903 49.5845C35.3085 49.478 36.0483 49.3784 36.6273 49.0956C36.3561 47.9115 35.6916 48.6238 35.1866 47.9219C35.5005 47.7526 36.7081 47.5307 37.2037 47.5307C37.066 47.7956 36.9454 47.9489 36.9155 48.3133L38.5485 48.411C38.5485 47.1398 38.502 47.8829 38.329 47.3916C38.0987 46.738 38.7084 47.0824 37.4919 46.2595C37.1237 46.0107 36.16 45.278 35.763 45.1837C34.5291 46.0251 35.5361 45.8889 34.4017 45.494C33.8861 45.3146 32.8658 45.2118 32.5624 45.9346C32.2938 46.5738 32.6009 46.7118 32.1131 46.9438C32.0969 46.9537 32.0659 46.9412 32.0591 46.9607C31.9972 47.135 30.8235 46.3973 30.7631 46.362C30.4002 46.149 29.6381 45.7749 29.4234 45.4767C29.7714 44.807 31.0411 44.4986 31.8247 44.4986L34.5179 44.886C35.6355 45.1944 35.7653 45.2521 35.5705 44.4009C36.138 44.4137 36.4327 44.6556 36.8193 43.912C36.2326 43.5959 35.6924 43.5513 35.4782 43.4194C35.0387 43.1484 35.1318 42.562 32.8899 42.338C32.5694 42.306 32.4252 42.2285 32.0423 42.268C31.3975 42.3345 31.4166 42.3607 31.3443 42.5431C31.2554 42.4234 31.2821 42.6531 31.2483 42.2496C30.5775 42.2496 30.573 42.2416 30.0942 42.444C27.7828 43.4212 27.8654 41.7752 26.3106 41.5071C24.7972 41.2459 23.9492 41.3036 22.5375 42.0849C21.7327 42.5302 21.305 43.2028 20.6667 43.4074C19.9285 43.6439 18.6585 43.3734 17.9659 43.2557C17.0174 43.0942 16.183 42.9345 15.1117 42.9345V42.9348Z" fill="white"/>
<path fill-rule="evenodd" clip-rule="evenodd" d="M35.1155 72.8609C35.4456 73.4427 37.2561 74.2584 38.019 74.673C38.9431 75.1753 40.4321 75.963 41.6295 75.6901C41.7323 75.5024 41.6392 75.6759 41.7438 75.4359L41.9101 75.0717C42.3186 75.0631 42.4951 75.1553 42.7791 75.2858C42.3551 73.82 41.3247 72.3381 40.055 71.9079C38.8862 71.5122 35.722 72.0858 35.1157 72.8612L35.1155 72.8609Z" fill="#FEFEFE"/>
<path fill-rule="evenodd" clip-rule="evenodd" d="M34.903 23.4731C35.3051 23.1867 35.5662 23.3092 35.7781 22.9031C36.0815 22.3216 35.7005 22.2818 36.3815 21.9488C36.7639 21.7619 36.8811 21.4335 37.0592 21.0738C37.3285 20.5302 37.3537 20.5102 37.6977 20.1617C38.7233 19.1239 38.2361 20.2968 39.7445 19.3124C40.2999 18.9498 41.5468 18.7957 42.2509 19.0323C42.2717 19.0393 42.3031 19.0587 42.3194 19.0652C42.5633 19.1621 42.4521 19.9885 42.4754 20.3532C43.6809 20.8357 43.2102 20.4739 43.7006 20.6634C44.1742 20.8469 43.8915 21.2979 44.6751 21.2829C44.9667 21.0845 44.9709 20.9542 45.1285 20.6181C45.8675 20.5716 45.9873 20.8562 46.624 21.0164C47.2429 21.1724 47.8038 20.9999 48.4413 21.1254C48.7946 21.764 48.6949 22.2476 48.8968 22.9114L49.537 24.5041C49.6628 24.8707 50.5752 26.1955 50.9452 26.4991C51.5053 26.9584 51.0944 26.5613 51.419 27.1875C52.1305 27.1765 52.48 26.9197 53.0688 26.8889C53.0384 29.5318 50.4354 29.8762 50.1737 31.309C49.9759 32.3917 50.7847 33.92 50.2154 34.4698C49.9505 34.7256 49.4263 34.9378 49.1399 35.2355C48.7067 35.6863 49.0306 36.1129 49.0206 36.7735C48.5258 37.307 48.4316 37.0194 48.2412 37.9451C48.0556 38.8471 48.0498 38.0762 47.2652 38.9995C46.9893 39.3242 46.6508 39.8099 46.1284 39.8964C45.8229 39.9471 44.5329 40.1119 44.3331 40.0838C44.2605 39.565 44.2691 39.0187 44.1304 38.5141C44.0182 38.1067 43.7727 37.6148 43.612 37.1924C42.0561 33.1019 42.9981 34.626 43.1121 33.1604C43.2419 31.4895 42.4332 31.0999 42.064 30.548C41.4393 29.6145 43.6639 29.0701 39.7618 28.5201C38.1084 28.287 38.1207 28.8114 37.3954 28.9569C36.7825 28.5228 34.6862 26.3584 35.0258 25.3694C35.3148 24.5278 34.8532 24.2883 34.903 23.4734V23.4731ZM34.6101 23.3754C34.6101 24.1698 34.8983 24.542 34.8983 24.9401C34.8983 25.5651 34.2417 25.2031 35.0116 26.4871C37.4709 30.5888 37.8482 28.754 38.6444 28.754C40.2396 28.754 40.3432 28.8712 41.91 29.2431C41.7944 30.6607 41.2508 29.8813 42.1982 31.1012C43.5409 32.8296 42.4864 33.8295 42.4864 34.3285C42.4864 35.5666 43.7654 37.9096 43.9316 38.8228C44.2374 40.503 43.7685 40.5068 45.2134 40.2347C46.4803 39.9965 46.0814 40.609 47.4089 39.2425C48.2995 38.3259 48.2407 38.8369 48.4274 38.2257C48.6097 37.6285 48.3907 37.4621 49.3062 36.9689C49.3062 36.4109 49.2102 36.2926 49.2102 35.6977C49.2102 35.1488 50.4616 34.9573 50.6528 34.226C50.8356 33.5259 50.3627 32.5802 50.3627 31.7858C50.3627 30.9052 50.6895 30.9247 51.0482 30.5277C51.2158 30.3421 51.2609 30.2062 51.4898 29.9993C51.6873 29.8207 51.8315 29.7617 52.0531 29.5948C53.0593 28.8368 53.7165 26.6025 53.0523 26.6025C52.5949 26.6025 52.2645 26.8959 51.5153 26.8959C51.4673 26.3106 51.2321 26.5774 50.5395 25.6396L49.7155 24.2293C49.4515 23.2126 49.2307 23.2398 49.0754 22.6315C48.8782 21.8594 49.0856 21.6655 48.5376 20.8322C48.0742 20.8322 47.2495 20.8803 46.8304 20.81C46.1386 20.6942 45.0026 19.6851 44.6955 21.0279C44.2256 20.9881 44.1002 20.6765 43.9269 20.3433C43.4711 20.3433 43.0917 20.4007 42.7744 20.2453C42.4731 19.6056 43.088 18.6807 42.102 18.6807H40.7572C39.8239 18.6807 39.4927 19.3997 38.8353 19.4622C38.4954 19.4945 37.8781 19.18 37.1087 20.4426C36.9391 20.7214 36.8373 21.0431 36.6524 21.3475C36.2562 22.0001 36.2575 21.477 35.8794 21.9293C35.6627 22.1883 35.6926 22.6657 35.4842 22.8961C35.3216 23.0758 35.2542 23.0171 35.0224 23.1106L34.6099 23.3752L34.6101 23.3754Z" fill="white"/>
<path fill-rule="evenodd" clip-rule="evenodd" d="M20.7553 82.2218C19.7843 79.674 18.8562 78.5622 17.7053 75.2094C17.5715 74.8201 17.4249 74.3918 17.261 73.9983C17.013 73.4029 16.9005 73.4007 16.6002 72.9521C15.3362 72.9599 15.7566 74.4877 16.0117 75.6553C16.3133 77.0363 17.399 80.0278 18.0126 81.2528C18.2762 81.7788 18.6346 81.6934 19.2643 81.8386C19.7838 81.9585 20.2338 82.1166 20.7559 82.222L20.7553 82.2218Z" fill="#FEFEFE"/>
<path fill-rule="evenodd" clip-rule="evenodd" d="M67.7505 82.2234C68.5118 82.0765 70.0094 81.8341 70.4028 81.3302C70.8105 80.8082 73.4667 74.4017 72.5536 73.1473C71.6437 71.8972 70.6065 75.9479 69.9829 77.3868L67.7505 82.2236V82.2234Z" fill="#FEFEFE"/>
<path fill-rule="evenodd" clip-rule="evenodd" d="M15.5984 81.6686L17.4181 81.4315C16.9671 79.9213 16.2244 78.4029 15.7115 76.8462C15.3454 75.7352 14.706 72.7965 14.1509 72.082C12.9952 72.1173 13.0303 73.1407 13.2252 74.2947C13.4515 75.6345 14.2036 77.962 14.6489 79.296C14.9284 80.1339 15.3414 80.9213 15.5984 81.6686Z" fill="#FEFEFE"/>
<path fill-rule="evenodd" clip-rule="evenodd" d="M72.8386 81.6682C73.5934 80.5695 74.9578 76.039 75.2722 74.3531C75.4833 73.2215 75.5557 72.2379 74.4713 72.0972C73.8483 72.8288 72.6989 77.2963 71.9672 79.2118C71.7186 79.8628 71.2899 80.7986 71.1315 81.4231L72.8386 81.6685V81.6682Z" fill="#FEFEFE"/>
<path fill-rule="evenodd" clip-rule="evenodd" d="M67.1914 36.7501C67.0196 37.4737 66.8203 36.9389 66.631 37.5976C66.4986 38.0579 66.6011 38.3767 66.8274 38.5935C67.4159 39.1572 69.856 40.1851 70.0868 38.3415C70.1935 37.4884 69.6381 36.8817 70.3503 36.2959L70.8265 37.9426C71.0717 38.488 70.8307 38.0421 71.1908 38.2595C71.4368 38.4082 71.3109 38.1383 71.5078 38.7142C71.5616 38.8707 71.6206 39.064 71.6872 39.2164C72.1073 40.1798 71.8083 39.7043 71.9586 40.317C72.138 41.0492 72.8993 41.294 73.2871 41.792C73.6262 42.2272 73.9264 42.9785 74.2367 43.567C75.1201 45.2425 75.0868 44.4217 75.0294 45.5749C74.866 48.8545 73.9831 48.5544 73.435 49.6046C73.1486 50.153 73.3946 50.0128 72.7941 50.318C70.2984 51.5865 70.0364 52.2015 67.9888 50.6125C67.4387 50.1856 67.0104 49.8721 66.5064 49.2863C65.1483 47.7077 66.5481 46.3642 61.2664 48.6599C60.1367 49.1509 58.7374 50.3722 57.3302 50.1071C57.175 49.6668 57.1731 49.1773 57.0223 48.6708C56.6911 47.5582 55.9149 46.3743 55.676 44.858C55.4481 43.4122 55.8037 43.0044 56.5125 42.35C57.0787 41.827 57.7107 41.322 58.3514 40.8003C59.0206 40.2551 59.5734 39.8164 60.3124 39.2757C61.8509 38.1506 61.7227 38.4216 62.7491 38.3217C63.8468 38.2149 63.1975 37.2804 64.4673 36.6575C65.1097 36.3424 65.3274 36.7087 65.8181 36.8841C66.4521 37.1106 66.6339 36.8091 67.1916 36.7498L67.1914 36.7501ZM69.8612 38.1428C69.8612 40.1542 66.7875 38.594 66.7875 38.1428C66.7875 37.451 66.9648 37.494 67.038 37.4198C67.3285 37.1247 67.3493 37.2566 67.4599 36.7736L67.1555 36.3977C65.2086 37.4384 65.6127 35.261 63.7495 36.9076C63.5117 37.1178 63.6153 36.9883 63.5085 37.2491C63.0362 38.4037 62.8931 38.0451 62.0812 38.0451C61.3957 38.0451 58.8973 40.0479 58.3055 40.5576C58.0104 40.8115 57.7343 40.9968 57.4493 41.2505C57.1545 41.513 56.8794 41.7631 56.5653 42.0131C56.2432 42.2691 56.0224 42.4461 55.7778 42.7762C54.5135 44.4807 56.5361 47.5289 56.8529 48.9432C57.1115 50.0983 56.7861 50.3677 58.0472 50.3677C58.8076 50.3677 60.3535 49.388 61.2478 48.9322C61.5428 48.7819 61.7376 48.7069 62.0542 48.5795C62.3741 48.4508 62.5983 48.3317 62.8626 48.2289C63.776 47.8741 64.1767 47.7272 65.1551 47.7272C65.6085 47.7272 65.4635 48.2223 66.0593 49.0561C66.3819 49.5076 66.6853 49.8903 67.1156 50.2302C70.0571 52.5547 70.0437 52.0148 72.841 50.565C73.4473 50.2507 73.4014 50.275 73.5826 49.8529C74.202 48.4092 75.2408 49.1859 75.2408 44.8908L74.3125 43.1959C73.3694 41.2718 73.643 41.8865 72.62 40.9095C72.2772 40.5822 72.209 40.5739 72.1692 39.9993C72.1149 39.2196 71.7488 39.0565 71.495 37.9474C71.0046 37.989 71.1876 38.177 71.0287 37.8368L70.4384 35.8936C69.3541 36.6329 69.862 37.4139 69.862 38.1428H69.8612Z" fill="white"/>
<path fill-rule="evenodd" clip-rule="evenodd" d="M27.9734 35.9663C27.685 38.1229 25.297 36.8236 24.7519 37.7819C24.7235 37.8316 24.5019 38.4209 24.2366 38.4783C23.276 38.3039 22.622 37.3173 22.387 36.3118C22.2121 35.5623 22.0545 35.5465 21.2216 35.4256C21.0213 35.3968 20.587 35.2803 20.4462 35.2662C20.0838 35.2296 20.2406 35.4008 19.681 35.3078C19.8317 35.1215 19.6508 35.3038 19.8435 35.1444C19.8963 35.1009 19.9922 35.0363 20.0762 34.9802L21.2523 34.1258C22.3505 33.4297 22.7122 34.6951 23.191 33.5317C24.006 33.7325 23.3919 33.5488 24.027 33.2375C24.7555 32.8802 27.0053 33.0989 27.7825 33.1755C28.6002 35.083 28.3899 33.9461 29.5387 33.9242C29.3387 34.2251 29.0237 34.3373 28.6875 34.9549C28.2949 35.676 28.8606 34.9041 28.6209 35.6568C28.5097 36.0053 28.3322 35.9204 27.9732 35.9663H27.9734ZM23.084 33.155C22.9838 33.5929 22.8931 33.469 22.7958 33.8396C21.5531 33.2324 20.8988 34.1576 20.667 34.3127C19.8574 34.8542 19.9361 34.8259 19.146 35.0133C19.3576 35.821 20.3156 35.4982 20.6219 35.5634C22.4827 35.9585 21.8819 35.6921 22.2614 36.8292C22.5257 37.6217 23.4336 38.7298 24.2368 38.7298C24.5961 38.7298 24.9732 38.1424 25.0052 37.7517C26.1748 37.7253 28.0634 37.552 28.1748 36.1868C28.6508 36.1761 28.7027 36.1382 28.8454 35.7879C29.1795 34.9687 28.5506 35.2753 29.3977 34.4003C29.6373 34.1528 29.8136 34.085 29.9038 33.7419C29.5091 33.7085 29.6893 33.6441 29.3274 33.6441C29.0476 33.6441 28.7733 33.9509 28.4628 34.0353C27.9066 33.1894 28.2834 32.9464 27.4951 32.869C26.5854 32.7796 24.9902 32.6562 24.1225 32.9419C23.0788 33.2853 24.2919 33.4417 23.0838 33.1552L23.084 33.155Z" fill="white"/>
<path fill-rule="evenodd" clip-rule="evenodd" d="M52.0799 38.2136C52.2784 37.9784 53.2183 35.3177 53.2259 35.2678C53.308 34.7354 52.9697 34.679 52.6728 34.907C51.2754 35.982 51.6076 35.664 51.4723 36.4343C51.337 37.2065 51.0187 38.2884 52.0797 38.2136H52.0799Z" fill="#FEFEFE"/>
<path fill-rule="evenodd" clip-rule="evenodd" d="M52.0799 38.2137C51.0189 38.2884 51.3373 37.2068 51.4726 36.4344C51.6076 35.664 51.2754 35.982 52.6731 34.9071C52.97 34.6788 53.3082 34.7354 53.2262 35.2678C53.2186 35.3177 52.2787 37.9784 52.0802 38.2137H52.0799ZM51.0349 37.3601C51.0349 38.2433 51.718 38.807 52.301 38.3605C52.5952 38.1349 52.858 36.9822 53.0397 36.4675C53.2516 35.8672 54.0839 34.5239 52.8598 34.5239L51.4962 35.4825C51.2274 35.7196 51.0349 37.2674 51.0349 37.3598V37.3601Z" fill="white"/>
<path fill-rule="evenodd" clip-rule="evenodd" d="M50.6885 2.14483C50.7223 2.55282 50.6903 2.51731 50.6523 2.91541L50.453 5.20659C50.4087 5.76356 50.4483 7.1365 49.9204 7.41125C49.6996 7.52633 48.7288 7.57146 49.4114 7.77411L50.6437 7.88599C51.058 7.92924 51.9155 8.07529 52.2981 7.9506C51.9438 7.62245 51.6931 7.87451 51.438 7.46812C51.1867 7.06842 51.7005 3.08256 51.7671 2.3838C51.9297 0.679774 52.1505 1.3051 52.9445 1.01673C52.6094 0.706208 51.0842 0.686716 51.0614 0.692056C50.7013 0.776163 50.1407 1.97048 49.9301 2.33094C49.5297 3.01687 48.2746 5.43034 47.8833 5.84072L45.8982 0.164453C45.3826 0.154574 44.8414 0.0747393 44.3219 0.0224062C44.1648 0.00638583 43.6264 -0.0737158 43.9398 0.213315C44.1905 0.44294 44.4593 0.242152 44.661 0.607148C44.8663 0.978019 44.378 5.34116 44.2826 6.24711C44.1685 7.32768 42.6724 6.70182 43.2971 7.12796C43.393 7.19338 45.4928 7.43608 45.7534 7.35091C45.3315 6.79073 44.7562 7.32554 44.7845 6.28929C44.7916 6.0303 44.8254 5.77344 44.855 5.52432C44.8915 5.21673 44.8917 5.01114 44.9208 4.68966C44.9728 4.1108 45.0297 3.68252 45.0722 3.09537C45.0968 2.75628 45.1776 1.73632 45.2631 1.50989L47.1916 7.11541C47.5285 8.11321 47.7124 7.24651 48.3853 6.09331L50.688 2.14457L50.6885 2.14483Z" fill="white"/>
<path fill-rule="evenodd" clip-rule="evenodd" d="M80.7323 25.4977L80.3169 24.8395C80.8338 24.5175 81.9701 23.9899 82.8446 23.4174L83.3122 24.1578C84.283 25.6952 81.8602 27.2839 80.7326 25.4974L80.7323 25.4977ZM77.662 27.5071C77.8828 27.1891 77.5852 27.1504 77.5959 26.7139C77.6127 26.0303 78.9491 25.7348 79.9938 25.051C80.4764 25.8154 80.3796 25.491 79.8061 26.7785C79.5945 27.2538 79.3834 27.6479 79.1712 28.1242C78.6562 29.2811 78.2542 29.071 79.4683 31.0914L79.7106 30.9328C79.3965 30.0354 79.5174 29.6112 79.9799 28.6571C80.2157 28.1709 80.6995 26.9403 81.0611 26.5611C81.3622 27.0156 81.7485 27.2383 82.146 27.34C83.1981 27.6089 84.0035 27.0207 84.213 25.9852C84.4708 24.7127 83.0421 22.4645 82.3194 21.3198L82.1578 21.4256C82.9299 22.7104 81.8489 22.6986 79.7452 23.9357L77.3114 25.2427C76.7951 25.4122 76.6545 25.1879 76.323 24.6633L76.1615 24.769C76.4463 25.315 77.3657 27.2975 77.6618 27.5074L77.662 27.5071Z" fill="white"/>
<path fill-rule="evenodd" clip-rule="evenodd" d="M64.5273 11.2243C63.1503 12.1254 61.7937 11.7316 60.8048 10.7541C61.0555 10.4735 63.236 6.01315 63.5289 5.48341C65.2039 5.51519 67.0209 7.72306 65.3819 10.2812C65.2303 10.5181 64.7929 11.0505 64.527 11.2243H64.5273ZM59.8007 10.2487C59.3609 10.5365 59.2615 10.0679 58.7617 10.231C59.0108 10.5619 59.9098 10.9426 60.3011 11.1602C61.9204 12.06 63.6637 13.0682 65.5025 11.8648C66.6976 11.0828 67.4929 9.12297 67.0413 7.74655C66.5748 6.32475 65.6143 5.91142 64.5446 5.28423C64.5226 5.27114 60.9724 3.25872 62.0473 4.22929C62.7441 4.85862 62.7315 4.66851 61.9754 6.20059C61.7006 6.75756 60.0939 10.0564 59.8007 10.2484V10.2487Z" fill="white"/>
<path fill-rule="evenodd" clip-rule="evenodd" d="M37.253 7.45074C34.5905 9.19349 32.9371 4.52062 33.792 2.43825C34.7327 0.147071 38.0521 0.870121 38.1963 5.04101C38.2267 5.92347 38.1014 6.89537 37.253 7.45047V7.45074ZM32.9534 6.42811C33.5418 7.35996 34.156 7.95965 35.2881 8.18874C38.3235 8.80259 40.542 5.24554 38.6439 2.23879C37.7326 0.795093 35.5755 0.294191 34.3731 1.08106L33.8077 1.45113C32.3237 2.42249 31.9944 4.90911 32.9534 6.42811Z" fill="white"/>
<path fill-rule="evenodd" clip-rule="evenodd" d="M55.1667 2.00435C55.4916 2.51887 55.1292 3.0633 55.0141 3.52762L53.6546 8.1097C53.2288 8.38845 53.1294 8.14281 52.7892 8.1898C52.1145 8.28272 52.8611 8.46455 53.0061 8.50487L57.7809 9.94349L58.6891 8.72915C58.8674 8.43678 58.8797 8.60633 58.7677 8.25121C57.3107 9.20469 58.0149 9.42444 56.1781 8.98575C55.848 8.90671 55.7701 8.87975 55.4586 8.77535C55.098 8.65466 55.0893 8.74491 54.7684 8.42744L55.5071 5.61854L57.0892 6.02198C58.2939 6.46468 57.5179 7.26249 57.8502 7.34046C58.0065 7.31936 57.8795 7.42163 58.0096 7.22751L58.4801 5.56914C58.601 5.19347 58.7095 5.28558 58.5831 4.88427C58.0476 5.3024 58.2212 5.8738 57.1781 5.60572L55.6225 5.07812C55.8653 4.6389 55.9004 4.25788 56.0633 3.76018C56.2033 3.33244 56.2888 2.84756 56.4653 2.43396C57.22 2.86651 58.7302 2.94661 59.0853 3.50946C59.3769 3.97138 59.0924 4.16363 59.3334 4.62581C59.5251 4.41167 59.8109 3.11857 59.8125 3.03366L55.2409 1.65618C55.0303 1.57821 54.5861 1.39905 54.5462 1.58515C54.4838 1.87806 54.9923 1.72853 55.167 2.00515L55.1667 2.00435Z" fill="white"/>
<path fill-rule="evenodd" clip-rule="evenodd" d="M17.302 8.76616C18.3565 8.07622 18.412 8.73626 19.5662 10.5412C19.9566 11.1521 20.0259 11.4632 20.4166 12.0741C21.042 13.0524 21.721 13.6182 21.0908 14.2056C20.7593 14.5145 20.703 14.3151 20.828 14.7129L25.3238 11.8867C25.6815 11.6525 25.2221 10.7954 25.1162 9.92977C24.6745 10.2747 24.9821 10.133 24.8673 10.9361C24.7181 11.9806 24.2773 11.99 22.8019 12.9557C22.5837 13.0986 22.5544 13.0623 22.3459 13.1378C21.8235 12.3101 21.0955 11.3313 20.8168 10.5345C21.159 10.3105 21.2893 10.2681 21.523 10.1567C22.3099 9.78265 22.7841 8.94826 23.5406 10.1468L23.7829 9.98825L22.2711 7.955C22.6739 9.10606 22.4917 8.97336 20.6091 10.2056L19.1028 7.8199C19.5064 7.55583 19.5984 7.60896 20.0424 7.32594C20.3531 7.12808 20.6985 6.86135 21.0132 6.68619C21.3297 6.5097 21.6027 6.43734 21.8733 6.56417C22.3687 6.79673 22.1898 7.14811 22.6868 6.98577L21.8557 5.66943L17.1465 8.51918L17.3023 8.7659L17.302 8.76616Z" fill="white"/>
<path fill-rule="evenodd" clip-rule="evenodd" d="M71.5912 17.5296C70.312 18.3666 69.0499 16.7221 69.2814 15.4613C69.3777 14.9372 69.675 14.7417 69.6984 14.3506C69.1847 14.4157 68.442 15.6904 67.9382 16.084L68.094 16.3307C68.416 16.1299 68.2694 16.1841 68.55 16.1486C69.1264 17.0612 69.4319 17.6521 70.1518 18.0873C70.5011 18.2985 70.7549 18.376 71.1268 18.4037C72.4993 18.5065 73.6115 17.395 72.9103 15.2739C72.4125 13.768 71.763 12.6506 72.6939 12.0413C73.7298 11.3633 75.256 13.0762 74.3893 14.6104C74.1813 14.9788 74.1213 14.8363 74.2403 15.2143C74.9088 14.7551 75.3116 13.8961 75.9485 13.3987L75.7928 13.152C75.4707 13.3525 75.6173 13.2983 75.3367 13.3341C74.7666 12.4308 74.5679 11.9037 73.8478 11.5193C72.7694 10.9436 70.3815 11.237 71.3751 14.4387C71.6596 15.3559 72.4789 16.9485 71.5912 17.5296Z" fill="white"/>
<path fill-rule="evenodd" clip-rule="evenodd" d="M82.6419 42.2681C82.6291 42.9682 81.7658 45.52 83.8768 46.2503C86.4223 47.1308 86.4735 43.0157 87.813 42.1389C88.4691 41.7096 89.9059 42.7031 89.0812 44.2597C88.6267 45.1174 88.1974 44.9331 87.4666 45.3884C87.8153 45.7117 87.818 45.4685 88.7067 45.4396C89.1121 45.4265 89.5996 45.4583 90 45.2418C89.7 44.8434 89.8684 45.1705 89.5267 44.8538C89.5521 43.4729 90.2948 43.5385 89.2036 41.81C88.7998 41.1702 87.6417 40.9721 86.9182 41.4455C85.7308 42.2225 85.7287 44.433 84.5114 45.2298C83.7108 45.7539 82.7085 44.9422 82.8945 43.5271C83.0568 42.2924 84.0819 42.1392 84.7018 41.7333C84.4367 41.4874 84.4996 41.567 84.1013 41.6166C83.8377 41.6495 83.7189 41.6655 83.4593 41.6941C83.0586 41.7381 82.5257 41.7504 82.1686 41.8802C82.4686 42.2785 82.3002 41.9515 82.6419 42.2681Z" fill="white"/>
<path fill-rule="evenodd" clip-rule="evenodd" d="M73.1492 19.9973C72.7881 20.2336 72.4949 19.9696 72.197 19.5744L75.5613 23.9992C76.1083 23.6585 76.6789 23.6166 77.2524 23.2412C76.9225 22.9355 76.7647 23.1819 76.2877 23.2027C75.926 23.2185 75.6617 23.1739 75.3643 22.9702C75.0536 22.7574 74.8789 22.5096 74.5676 22.1435L73.9058 21.2851C73.7217 20.8312 74.153 20.6037 74.7887 20.0774C75.1396 19.7869 75.5961 19.3264 75.989 19.0692L77.1895 20.6088C77.5026 21.1049 77.2089 21.3957 76.8777 21.7428L78.5896 20.6355C78.9365 20.3479 78.9544 20.5388 78.8227 20.121C78.1283 20.5754 77.9162 20.545 77.4436 20.0697C77.1195 19.7437 76.6047 19.1397 76.3412 18.7224C77.104 18.2231 77.6849 17.4942 78.4477 16.9949C79.2607 18.2824 80.3169 18.692 80.0175 19.607C79.8565 20.0988 79.5725 19.9843 79.723 20.4617C80.0411 20.2537 80.7995 19.5496 80.9408 19.3159C80.3154 18.4858 77.8981 15.7624 77.4667 15.0791L77.2244 15.2377C77.7533 16.0758 77.8113 16.0646 77.1675 16.6405C76.3574 17.3649 73.7988 19.5725 73.1497 19.9973H73.1492Z" fill="white"/>
<path fill-rule="evenodd" clip-rule="evenodd" d="M25.5895 8.69016C26.0831 9.47195 26.4845 9.76032 27.1653 10.0986C27.2956 10.1635 27.3814 10.2076 27.5505 10.2473C27.6717 10.2759 27.8112 10.2866 27.9533 10.3138C28.3771 10.3945 28.3776 10.4252 28.8473 10.3595C31.5035 9.98861 31.8911 7.44431 31.7933 7.25607C31.4689 6.63288 31.5793 8.60285 30.3308 9.27971C27.6562 10.7298 26.2213 7.97405 26.007 5.73921C25.857 4.17376 27.3227 3.11214 28.5526 3.27742C28.8533 3.31774 28.6603 3.27502 28.9509 3.36473C30.0339 3.69902 29.8839 4.52033 30.4837 4.32435C30.2471 3.94947 30.121 3.63494 29.913 3.2072C29.7578 2.88813 29.6482 2.54663 29.3786 2.19632C29.3739 2.19017 29.3597 2.17015 29.3469 2.1616C29.0553 2.1074 29.2519 2.17202 29.0697 2.80803C27.6987 2.92631 27.7147 2.64862 26.259 3.60103C25.5331 4.07603 25.0354 5.27809 24.9725 5.93466C24.8943 6.7517 24.9908 7.74176 25.5893 8.68989L25.5895 8.69016Z" fill="white"/>
<path fill-rule="evenodd" clip-rule="evenodd" d="M80.2472 33.9533C80.5315 34.2171 81.567 34.1533 82.2106 34.1974C83.2186 34.2663 87.1037 34.27 87.6885 34.5843C87.9182 34.7076 87.9651 34.7837 88.1421 35.0641L88.3844 34.9055C88.0155 34.2911 87.9722 33.5291 87.5649 32.8842C87.298 33.183 87.5062 33.2896 87.3111 33.748C86.3261 34.1055 82.8174 33.5301 82.1689 33.7419L82.065 33.5774C82.6532 33.1924 83.2873 32.4466 83.7963 31.9791C84.615 31.2269 84.8324 30.836 85.851 30.1693C86.2241 29.925 86.4017 30.3181 86.6416 30.6983C86.9261 30.38 86.7932 30.4721 86.6062 29.9827C86.3962 29.4321 86.018 27.9935 85.7298 27.8071C85.4471 28.2138 85.8415 28.1788 85.6089 28.7003C85.4715 29.0084 80.7735 33.4012 80.2469 33.9531L80.2472 33.9533Z" fill="white"/>
<path fill-rule="evenodd" clip-rule="evenodd" d="M82.3189 40.8522L82.4804 40.7465C82.0349 39.4737 83.5328 39.5402 85.6776 39.1188C89.0833 38.45 88.4193 38.3843 89.0017 39.5009C89.249 39.2243 89.1323 39.1728 89.0397 38.7309L88.7306 37.1029C88.6435 36.6589 88.6821 36.4728 88.3325 36.4512C88.4749 36.8578 88.4093 37.0837 88.2633 37.4265C87.4831 37.7096 85.6653 38.0302 84.76 38.2081C81.7084 38.8072 82.424 38.8718 81.8112 37.6968C81.5371 38.003 81.712 38.3141 81.8959 39.2016C81.9871 39.6416 82.1075 40.5003 82.3189 40.8522Z" fill="white"/>
<path fill-rule="evenodd" clip-rule="evenodd" d="M9.47202 23.076L10.4793 23.6466C12.6286 24.8639 12.1471 27.8995 9.58583 27.77C7.93111 27.6864 4.66442 25.8732 5.80908 23.6733C6.59711 22.1586 8.25707 22.3882 9.47176 23.076H9.47202ZM5.55366 23.2069C4.18976 25.7034 5.83714 28.2976 8.29982 28.7259C12.3627 29.4326 13.7717 24.0565 10.6665 22.298C9.5992 21.6935 8.8812 21.3405 7.54116 21.7298C6.82893 21.9367 6.04379 22.3097 5.55366 23.2071V23.2069Z" fill="white"/>
<path fill-rule="evenodd" clip-rule="evenodd" d="M8.78444 18.098C8.941 18.3236 9.85306 19.2541 10.1457 19.4285C10.307 18.7765 9.14292 18.5797 9.94615 17.4791C10.233 17.0861 11.2374 15.7609 11.4724 15.5916L13.4045 22.3653C13.5042 22.7255 13.4733 23.06 13.8472 23.3156C14.3885 22.325 16.8073 19.7113 17.4414 18.7484C17.1551 18.4841 16.9778 18.2518 16.7339 17.9466C16.0739 17.1202 16.1761 17.3496 15.9493 17.4559C17.1475 18.6352 16.0531 19.6659 15.2892 20.6468C14.9887 21.0329 14.6633 21.4452 14.3426 21.8054L12.1301 14.0342C11.8025 14.255 9.39021 17.4169 8.78418 18.0977L8.78444 18.098Z" fill="white"/>
<path fill-rule="evenodd" clip-rule="evenodd" d="M5.59143 40.2383L5.4514 40.4949C6.25096 40.9477 6.77963 41.4006 6.80297 42.1159C6.8979 45.0057 6.77517 44.3221 5.26573 44.371C4.72395 44.3886 4.21442 44.3235 3.69572 44.3123C3.76731 40.8361 4.14834 42.3028 4.89126 41.5202C4.48217 41.4008 3.63802 41.4224 3.16206 41.3987C2.68086 41.3747 2.4826 41.2889 2.37037 41.4385C2.1653 41.7113 2.69135 41.6174 2.98794 41.7853C3.51608 42.0846 3.28112 43.5769 3.26643 44.2933L0.47701 44.1683C0.844143 42.8621 0.0681818 41.4147 1.37334 41.047C2.96512 40.5985 0.462325 40.705 0.282692 40.701C0.0435314 41.5517 0.148689 45.7188 0 46.2483L0.167832 46.3434C0.613112 45.3408 -0.439773 45.1995 3.42063 45.349C5.19047 45.4174 6.67762 45.1843 6.84965 46.0577C6.95507 46.5941 6.66031 46.2625 7.08068 46.5658L7.27972 40.9709C6.71932 40.6535 6.22369 40.5966 5.59143 40.2385V40.2383Z" fill="white"/>
<path fill-rule="evenodd" clip-rule="evenodd" d="M8.13441 30.1518C8.43309 30.3561 8.85766 30.786 8.98301 31.0559C9.30949 31.76 8.76509 32.816 8.51413 33.5652C8.36517 34.0106 8.23458 34.5209 8.05731 34.9203C7.70355 34.3665 7.30731 33.8811 6.92444 33.3076C6.71255 32.9904 6.50853 32.7677 6.31185 32.4788L3.31186 28.3159C3.08659 28.8232 2.93712 29.4392 2.74201 29.9914L1.66553 33.3167C1.73895 33.5556 1.64796 33.3751 2.34446 33.6974C2.69638 33.8603 2.86054 33.8795 3.23423 34.0912L3.37427 33.8349C2.4129 33.2905 2.23249 33.0726 2.52934 32.1386C2.70084 31.599 3.01553 30.495 3.28301 29.9783C3.46605 30.2651 3.64411 30.4696 3.84997 30.7486C4.49009 31.6153 7.57033 36.1624 7.99096 36.4497C8.32217 35.8436 9.74271 31.5138 9.90635 30.932L8.13441 30.1521V30.1518Z" fill="white"/>
<path fill-rule="evenodd" clip-rule="evenodd" d="M0.928599 36.7023C0.164701 38.1006 1.61671 38.1778 1.79765 37.5856C1.89652 37.2628 1.69932 36.6914 2.37432 37.0737C2.88856 37.365 2.71654 37.7671 3.2321 38.119C3.43533 37.2975 2.27729 36.2252 1.47982 36.4022C1.34189 36.4326 1.00491 36.5627 0.928337 36.7026L0.928599 36.7023Z" fill="white"/>
</g>
<defs>
<clipPath id="clip0_224_729">
<rect width="90" height="100" fill="white"/>
</clipPath>
</defs>
</svg>
